<?xml version="1.0" standalone="no"?>
<!DOCTYPE svg PUBLIC "-//W3C//DTD SVG 20010904//EN"
 "http://www.w3.org/TR/2001/REC-SVG-20010904/DTD/svg10.dtd">
<svg version="1.0" xmlns="http://www.w3.org/2000/svg"
 width="500.000000pt" height="500.000000pt" viewBox="0 0 500.000000 500.000000"
 preserveAspectRatio="xMidYMid meet">

<g transform="translate(0.000000,500.000000) scale(0.100000,-0.100000)"
fill="#000000" stroke="none">
<path d="M1693 4267 c2 -6 30 -154 62 -327 32 -173 59 -316 61 -318 1 -2 15 3
31 12 l30 15 -57 306 c-32 168 -59 307 -61 309 -2 2 -19 6 -38 10 -24 4 -32 3
-28 -7z"/>
<path d="M1543 4248 c3 -13 35 -182 72 -377 36 -195 68 -357 70 -360 3 -3 17
6 30 20 l25 24 -67 358 -67 357 -34 0 c-30 0 -34 -2 -29 -22z"/>
<path d="M1407 4243 c-10 -3 -17 -10 -14 -16 2 -7 39 -202 82 -434 44 -233 82
-423 85 -423 3 0 16 13 27 29 l22 28 -77 412 c-81 431 -76 417 -125 404z"/>
<path d="M1904 3970 l51 -271 25 6 c14 4 28 9 31 13 4 4 -14 118 -40 254 l-46
248 -29 10 c-16 5 -32 10 -36 10 -3 0 17 -122 44 -270z"/>
<path d="M2026 4153 c4 -20 74 -393 74 -398 0 -8 53 10 56 20 3 7 -9 86 -25
175 -17 90 -31 166 -31 170 0 7 -65 50 -75 50 -2 0 -1 -8 1 -17z"/>
<path d="M2197 4048 c4 -18 16 -82 28 -143 l21 -110 29 3 c17 2 31 5 33 6 1 2
-8 58 -20 126 -21 112 -25 123 -50 136 -41 21 -48 18 -41 -18z"/>
<path d="M3162 4033 c-27 -4 -31 -8 -27 -26 12 -58 45 -244 45 -259 0 -14 -5
-15 -27 -8 -34 11 -69 7 -66 -9 2 -6 -3 -10 -10 -8 -6 1 -11 -4 -10 -10 2 -7
-3 -12 -10 -10 -6 1 -11 -4 -10 -10 2 -7 -3 -12 -10 -10 -6 1 -11 -4 -10 -10
2 -7 -3 -12 -10 -10 -6 1 -11 -4 -10 -10 2 -7 -3 -12 -10 -10 -6 1 -11 -4 -9
-11 1 -6 -4 -11 -10 -10 -7 2 -12 -3 -10 -10 1 -6 -4 -11 -10 -10 -7 2 -12 -3
-10 -10 1 -6 -4 -11 -10 -10 -7 2 -12 -3 -10 -10 1 -6 -4 -11 -10 -10 -7 2
-12 -3 -10 -10 1 -6 -4 -11 -10 -10 -7 2 -12 -3 -10 -10 1 -6 -4 -11 -10 -10
-7 2 -12 -3 -10 -10 1 -6 -4 -11 -10 -10 -7 2 -12 -3 -10 -10 1 -6 -4 -11 -10
-10 -7 2 -12 -3 -10 -10 1 -6 -4 -11 -10 -10 -7 2 -12 -3 -10 -10 1 -6 -4 -11
-10 -10 -7 2 -12 -3 -10 -10 1 -6 -4 -11 -10 -10 -7 2 -12 -3 -10 -10 1 -6 -4
-11 -10 -10 -7 2 -12 -3 -10 -10 1 -6 -4 -11 -10 -10 -7 2 -12 -3 -10 -10 1
-6 -4 -11 -10 -10 -7 2 -12 -3 -11 -9 2 -7 -3 -12 -10 -10 -6 1 -11 -4 -10
-10 2 -7 -3 -12 -10 -10 -6 1 -11 -4 -10 -10 2 -7 -3 -12 -10 -10 -6 1 -11 -4
-10 -10 2 -7 -3 -12 -10 -10 -6 1 -11 -4 -10 -10 2 -7 -3 -12 -10 -10 -6 1
-11 -4 -10 -10 2 -7 -3 -12 -10 -10 -6 1 -11 -4 -10 -10 2 -7 -3 -12 -10 -10
-6 1 -11 -4 -10 -10 2 -7 -3 -12 -10 -10 -6 1 -11 -4 -10 -10 2 -7 -3 -12 -10
-10 -6 1 -11 -4 -10 -10 2 -7 -3 -12 -10 -10 -6 1 -11 -4 -10 -10 2 -7 -3 -12
-10 -10 -6 1 -11 -4 -10 -10 2 -7 -3 -12 -10 -10 -6 1 -11 -4 -10 -10 2 -7 -3
-12 -10 -10 -6 1 -11 -4 -10 -10 2 -7 -3 -12 -10 -10 -6 1 -11 -4 -10 -10 2
-7 -3 -12 -10 -10 -6 1 -11 -4 -10 -10 2 -7 -3 -12 -10 -10 -6 1 -11 -4 -10
-10 2 -7 -3 -12 -10 -10 -6 1 -11 -4 -10 -10 2 -7 -3 -12 -10 -10 -6 1 -11 -4
-10 -10 2 -7 -3 -12 -10 -10 -6 1 -11 -4 -10 -10 2 -7 -3 -12 -10 -10 -6 1
-11 -4 -10 -10 2 -7 -3 -12 -10 -10 -6 1 -11 -4 -10 -10 2 -7 -3 -12 -10 -10
-6 1 -11 -4 -10 -10 2 -7 -3 -12 -10 -10 -6 1 -11 -4 -10 -10 2 -7 -3 -12 -10
-10 -6 1 -11 -4 -10 -10 2 -7 -3 -12 -10 -10 -6 1 -11 -4 -10 -10 2 -7 -3 -12
-10 -10 -6 1 -11 -4 -10 -10 2 -7 -3 -12 -10 -10 -6 1 -11 -4 -10 -10 2 -7 -3
-12 -10 -10 -6 1 -11 -4 -10 -11 2 -6 -3 -11 -10 -10 -6 2 -11 -3 -9 -10 1 -6
-4 -11 -10 -10 -7 2 -12 -3 -10 -10 1 -6 -4 -11 -10 -10 -7 2 -12 -3 -10 -10
1 -6 -4 -11 -10 -10 -7 2 -12 -3 -10 -10 1 -6 -4 -11 -10 -10 -7 2 -12 -3 -10
-10 1 -6 -3 -11 -10 -10 -15 4 -15 5 -17 -162 l-1 -140 -40 0 c-27 0 -43 5
-46 15 -5 13 -11 12 -41 -6 -29 -18 -45 -20 -101 -16 l-67 4 -121 -119 -121
-120 -37 67 c-21 36 -46 89 -55 118 -10 29 -24 53 -32 55 -13 2 -15 -23 -14
-168 0 -93 -2 -166 -5 -162 -4 4 -26 113 -49 242 -24 129 -45 245 -48 258 -4
19 -12 22 -49 22 -24 0 -44 -1 -44 -2 0 -2 24 -130 53 -285 l53 -282 -37 21
c-37 20 -37 20 -59 142 -12 66 -35 184 -50 261 l-28 140 -1 -92 c-1 -92 -1
-93 -26 -93 -21 0 -24 -4 -20 -22 3 -13 14 -68 24 -123 l19 -100 -43 47 c-41
46 -43 50 -70 193 l-27 145 -42 -22 c-70 -39 -161 -138 -186 -204 -33 -86 -31
-169 6 -242 56 -108 157 -159 345 -172 146 -10 190 -28 448 -179 105 -62 200
-114 211 -116 10 -2 34 6 52 18 18 13 49 31 68 40 19 10 49 26 65 37 17 11 46
27 65 36 19 10 43 24 54 33 14 12 54 17 180 22 174 8 253 26 348 83 78 47 83
53 64 71 -19 19 -21 66 -4 83 18 18 45 14 62 -9 8 -12 19 -18 25 -15 15 10 67
106 81 151 7 22 19 47 26 56 8 9 12 19 9 22 -3 4 -2 5 1 3 6 -5 129 58 154 78
8 7 31 20 50 30 34 17 63 33 87 49 9 5 0 19 -28 44 -57 52 -73 87 -73 164 0
84 33 146 100 185 74 43 176 33 226 -23 30 -33 58 -107 58 -155 l0 -48 -145 0
c-97 0 -145 -4 -145 -11 0 -20 57 -67 93 -77 38 -11 74 -5 117 18 19 10 25 8
46 -11 19 -18 22 -25 11 -37 -16 -20 -86 -52 -114 -52 -31 0 -283 -374 -283
-420 0 -22 -5 -30 -18 -30 -26 0 -29 -4 -204 -265 -144 -214 -181 -274 -159
-261 4 3 16 -3 26 -14 18 -20 41 -18 29 2 -4 6 -2 8 4 5 7 -5 509 703 683 966
4 5 34 -2 72 -17 36 -14 70 -26 76 -26 8 0 11 75 11 241 l0 240 43 -3 42 -3
-1 -254 -2 -254 57 6 c60 7 105 22 166 58 l38 23 -38 13 c-94 32 -145 107
-145 209 0 70 26 122 83 168 31 25 49 31 101 34 45 3 72 -1 94 -12 17 -9 34
-16 38 -16 11 0 -4 159 -21 224 -9 33 -26 86 -40 119 l-24 59 220 321 c186
270 220 325 217 351 -3 34 -29 46 -54 26 -8 -7 -91 -126 -186 -264 -94 -138
-187 -273 -206 -299 l-35 -49 -23 29 c-13 15 -23 39 -24 53 0 14 -26 163 -57
331 l-56 307 -35 16 c-19 9 -36 15 -38 13 -2 -2 20 -131 49 -288 30 -156 53
-285 51 -287 -1 -2 -23 16 -49 41 l-47 44 -49 259 c-27 142 -49 260 -49 260 0
8 -70 7 -70 -1 0 -5 18 -104 40 -220 22 -115 40 -216 40 -222 0 -8 -18 -2 -45
15 -36 21 -46 34 -51 62 -4 19 -21 112 -39 205 l-31 170 -36 3 c-31 3 -36 0
-32 -15 15 -65 64 -347 60 -350 -2 -2 -22 3 -44 12 l-40 16 -32 170 c-18 93
-33 168 -34 167 0 0 -16 -3 -34 -5z m408 -1073 c11 -11 20 -26 20 -33 0 -24
-31 -57 -55 -57 -49 0 -72 55 -38 92 21 24 48 23 73 -2z m-1205 -190 l33 -20
5 20 c4 15 13 20 41 20 l36 0 0 -290 0 -290 -45 0 -45 0 0 100 0 99 -35 -20
c-54 -32 -151 -24 -201 17 -110 89 -111 266 -1 353 55 44 151 49 212 11z m295
-125 c0 -142 1 -147 25 -170 30 -31 92 -34 126 -6 23 18 24 27 29 168 l5 148
43 3 42 3 0 -205 0 -206 -35 0 c-22 0 -38 6 -41 15 -5 12 -12 11 -47 -6 -50
-26 -125 -22 -165 8 -56 42 -67 76 -70 226 -2 76 -1 144 2 152 3 10 19 15 46
15 l40 0 0 -145z m-94 -633 c-2 -20 -4 -49 -5 -64 0 -16 -5 -28 -11 -28 -11 0
-14 122 -4 133 14 14 23 -5 20 -41z m-496 28 c0 -5 -9 -10 -20 -10 -18 0 -20
-7 -20 -55 0 -30 -4 -55 -10 -55 -5 0 -10 25 -10 55 0 48 -2 55 -20 55 -11 0
-20 5 -20 10 0 6 23 10 50 10 28 0 50 -4 50 -10z m100 -39 c17 -33 12 -41 -26
-41 -23 0 -33 -4 -28 -11 3 -6 17 -9 30 -6 16 3 24 0 24 -9 0 -17 -51 -19 -68
-2 -17 17 -15 54 4 72 21 22 51 20 64 -3z m94 13 c9 -3 16 -12 16 -20 0 -17
-17 -19 -22 -2 -6 18 -38 1 -38 -20 0 -24 25 -48 35 -32 3 5 13 10 22 10 13 0
13 -3 3 -15 -15 -18 -51 -20 -68 -3 -17 17 -15 54 4 72 17 18 24 19 48 10z
m124 -46 c2 -29 -1 -48 -7 -48 -6 0 -11 18 -11 41 0 33 -3 40 -17 37 -13 -2
-19 -14 -21 -41 -5 -54 -22 -45 -22 12 l0 49 38 -1 c37 -2 37 -2 40 -49z m110
40 c7 -7 12 -24 12 -38 0 -31 -17 -50 -45 -50 -27 0 -45 18 -45 46 0 43 50 70
78 42z"/>
<path d="M2214 2692 c-28 -22 -54 -74 -54 -107 0 -36 26 -93 52 -115 26 -22
84 -26 122 -9 38 18 59 71 54 137 -4 47 -10 60 -37 84 -37 33 -103 38 -137 10z"/>
<path d="M2120 1990 c0 -5 7 -10 15 -10 8 0 15 5 15 10 0 6 -7 10 -15 10 -8 0
-15 -4 -15 -10z"/>
<path d="M2445 1980 c-8 -25 11 -51 31 -43 20 8 14 57 -8 61 -10 2 -19 -5 -23
-18z"/>
<path d="M2365 3989 c4 -24 12 -71 19 -104 11 -57 13 -60 44 -63 38 -4 37 -6
16 111 -13 71 -19 87 -34 87 -10 0 -26 3 -35 6 -15 6 -16 1 -10 -37z"/>
<path d="M3007 4013 c-24 -4 -28 -8 -24 -26 3 -12 13 -65 23 -119 l17 -96 34
-7 c19 -3 36 -5 37 -3 5 7 -47 258 -53 257 -3 -1 -19 -4 -34 -6z"/>
<path d="M2524 3973 c3 -16 11 -56 17 -90 12 -63 12 -63 46 -63 28 0 33 3 29
18 -2 9 -10 50 -17 90 l-12 72 -34 0 c-32 0 -34 -2 -29 -27z"/>
<path d="M2835 3990 c-3 -5 1 -50 10 -99 l17 -89 34 -4 c19 -2 34 0 34 6 0 5
-7 52 -17 103 -16 91 -17 93 -44 93 -15 0 -31 -4 -34 -10z"/>
<path d="M2686 3918 c8 -40 14 -78 14 -84 0 -11 59 -28 68 -20 4 5 -13 118
-25 159 -3 12 -14 17 -38 17 l-33 0 14 -72z"/>
<path d="M1345 3786 c1 -95 6 -179 11 -187 4 -8 9 -26 10 -40 3 -33 63 -359
70 -379 4 -10 13 -1 28 28 l22 43 -54 292 c-31 161 -58 294 -61 297 -3 3 -7
27 -9 55 -1 27 -6 53 -10 57 -5 5 -7 -70 -7 -166z"/>
<path d="M3774 3885 c3 -11 22 -112 42 -225 21 -113 41 -209 45 -214 4 -4 15
17 25 48 16 50 16 67 7 134 -23 154 -32 179 -79 229 -30 32 -43 41 -40 28z"/>
<path d="M1345 3015 c0 -68 3 -121 7 -117 4 4 8 22 10 40 1 19 6 36 10 38 10
7 10 44 1 44 -5 0 -9 24 -11 52 -6 103 -17 65 -17 -57z"/>
<path d="M3164 2705 c-32 -13 -64 -49 -64 -72 0 -10 26 -13 100 -13 113 0 121
7 73 59 -34 36 -68 44 -109 26z"/>
<path d="M3802 2705 c-35 -15 -72 -79 -72 -125 0 -78 72 -147 140 -134 26 6
36 15 51 52 37 86 43 127 23 161 -17 30 -68 61 -96 61 -7 -1 -28 -7 -46 -15z"/>
<path d="M1855 2510 c-52 -52 -56 -60 -36 -60 32 0 76 34 91 69 22 55 5 52
-55 -9z"/>
<path d="M1312 2535 c0 -16 2 -22 5 -12 2 9 2 23 0 30 -3 6 -5 -1 -5 -18z"/>
<path d="M2627 1993 c-13 -12 -7 -51 8 -57 18 -6 37 26 29 48 -6 16 -26 21
-37 9z"/>
</g>
</svg>
